<svg xmlns="http://www.w3.org/2000/svg" xmlns:xlink="http://www.w3.org/1999/xlink" width="176" zoomAndPan="magnify" viewBox="0 0 132 30.000001" height="40" preserveAspectRatio="xMidYMid meet" version="1.0"><defs><g/><clipPath id="2674e06724"><path d="M 21 1.542969 L 26 1.542969 L 26 8 L 21 8 Z M 21 1.542969 " clip-rule="nonzero"/></clipPath><clipPath id="f67a2e17b1"><path d="M 21 3 L 32 3 L 32 27.46875 L 21 27.46875 Z M 21 3 " clip-rule="nonzero"/></clipPath><clipPath id="9a28882810"><path d="M 15 8 L 22 8 L 22 27.46875 L 15 27.46875 Z M 15 8 " clip-rule="nonzero"/></clipPath><clipPath id="8f653115fa"><path d="M 21 17 L 26 17 L 26 27.46875 L 21 27.46875 Z M 21 17 " clip-rule="nonzero"/></clipPath></defs><path fill="#8b231c" d="M 21.847656 12.996094 C 22.601562 14.878906 22.160156 16.230469 21.78125 17.375 C 21.4375 18.429688 21.121094 19.394531 21.820312 20.410156 C 21.519531 20.226562 21.261719 19.992188 21.050781 19.707031 C 19.675781 17.871094 22.277344 15.335938 21.847656 12.996094 " fill-opacity="1" fill-rule="nonzero"/><g clip-path="url(#2674e06724)"><path fill="#f9a628" d="M 21.769531 1.542969 C 23.460938 2.652344 23.871094 4.015625 24.21875 5.167969 C 24.539062 6.234375 24.832031 7.203125 25.988281 7.636719 C 25.632812 7.660156 25.289062 7.613281 24.953125 7.503906 C 22.777344 6.789062 23.460938 3.214844 21.769531 1.542969 " fill-opacity="1" fill-rule="nonzero"/></g><g clip-path="url(#f67a2e17b1)"><path fill="#8b231c" d="M 25.230469 27.257812 C 29.644531 27.257812 33.160156 21.257812 30.566406 16.5 C 27.605469 11.058594 22.324219 10.179688 21.542969 3.097656 C 19.429688 10.71875 26.0625 14.683594 27.175781 19.40625 C 28.070312 23.207031 26.464844 25.652344 25.230469 27.257812 " fill-opacity="1" fill-rule="nonzero"/></g><g clip-path="url(#9a28882810)"><path fill="#f9a628" d="M 21.453125 27.257812 C 19.257812 27.257812 16.464844 26.480469 15.523438 22.683594 C 14.320312 17.828125 19.289062 13.964844 19.597656 8.863281 C 21.667969 11.925781 20.910156 14.761719 19.507812 19.40625 C 18.238281 23.609375 20.21875 25.652344 21.453125 27.257812 " fill-opacity="1" fill-rule="nonzero"/></g><g clip-path="url(#8f653115fa)"><path fill="#b5511f" d="M 23.152344 27.210938 C 25.855469 27.472656 26.472656 21.101562 23.058594 17.863281 C 23.238281 22.367188 19.878906 26.890625 23.152344 27.210938 " fill-opacity="1" fill-rule="nonzero"/></g><g fill="#8b0000" fill-opacity="1"><g transform="translate(35.923776, 22.572752)"><g><path d="M 12.90625 -6.4375 L 2.703125 -6.4375 L 2.703125 -10.078125 L 0.859375 -10.078125 L 0.859375 0 L 2.703125 0 L 2.703125 -4.578125 L 12.90625 -4.578125 L 12.90625 0 L 14.765625 0 L 14.765625 -10.078125 L 12.90625 -10.078125 Z M 12.90625 -6.4375 "/></g></g></g><g fill="#8b0000" fill-opacity="1"><g transform="translate(51.568811, 22.572752)"><g><path d="M 8.046875 -10.078125 L 0.859375 0 L 3.09375 0 L 4.53125 -1.984375 L 13.78125 -1.984375 L 15.21875 0 L 17.5 0 L 10.296875 -10.078125 Z M 5.859375 -3.84375 L 9.15625 -8.46875 L 12.46875 -3.84375 Z M 5.859375 -3.84375 "/></g></g></g><g fill="#8b0000" fill-opacity="1"><g transform="translate(69.951009, 22.572752)"><g><path d="M 6.03125 -10.0625 L 0.859375 -10.0625 L 0.859375 0 L 6.796875 0 C 10.0625 0 14.671875 -1.640625 14.671875 -5.28125 C 14.671875 -8.8125 10.203125 -10.0625 6.03125 -10.0625 Z M 6.796875 -1.859375 L 2.71875 -1.859375 L 2.71875 -8.21875 L 6.03125 -8.21875 C 8.546875 -8.21875 12.8125 -7.59375 12.8125 -5.28125 C 12.8125 -2.859375 8.890625 -1.859375 6.796875 -1.859375 Z M 6.796875 -1.859375 "/></g></g></g><g fill="#8b0000" fill-opacity="1"><g transform="translate(85.495203, 22.572752)"><g><path d="M 0.859375 0.015625 L 14.671875 0.015625 L 14.671875 -1.84375 L 2.71875 -1.84375 L 2.71875 -4.640625 L 11.734375 -4.640625 L 11.734375 -6.5 L 2.71875 -6.5 L 2.71875 -8.203125 L 14.671875 -8.203125 L 14.671875 -10.0625 L 0.859375 -10.0625 Z M 0.859375 0.015625 "/></g></g></g><g fill="#8b0000" fill-opacity="1"><g transform="translate(101.039398, 22.572752)"><g><path d="M 9.171875 -5.984375 C 8.953125 -5.984375 8.765625 -6 8.578125 -6 C 8.3125 -6 7.984375 -6 7.625 -6 C 6.328125 -5.984375 3.59375 -5.96875 2.859375 -6.703125 C 2.75 -6.796875 2.703125 -6.890625 2.703125 -7.03125 C 2.703125 -7.40625 2.703125 -8.203125 8.4375 -8.203125 C 11.3125 -8.203125 12.25 -7.546875 12.5 -7.265625 C 12.625 -7.140625 12.671875 -7.03125 12.6875 -6.953125 L 14.5625 -6.953125 C 14.546875 -7.3125 14.4375 -7.84375 13.984375 -8.390625 C 13.078125 -9.5 11.21875 -10.0625 8.4375 -10.0625 C 4.296875 -10.0625 0.859375 -9.828125 0.859375 -7.03125 C 0.859375 -6.390625 1.09375 -5.8125 1.546875 -5.390625 C 2.734375 -4.1875 5.109375 -4.125 7.640625 -4.140625 C 7.984375 -4.140625 8.28125 -4.15625 8.515625 -4.140625 C 8.71875 -4.140625 8.9375 -4.140625 9.15625 -4.140625 C 11.453125 -4.109375 12.796875 -3.921875 12.796875 -3 C 12.796875 -2.484375 12.046875 -1.84375 8.53125 -1.84375 C 6.171875 -1.84375 4.84375 -2 3.90625 -2.40625 C 3.078125 -2.75 2.859375 -2.9375 2.8125 -3.234375 L 0.953125 -3.234375 C 1.0625 -1.859375 1.875 -1.25 3.1875 -0.6875 C 4.359375 -0.1875 5.859375 0.015625 8.53125 0.015625 C 10.359375 0.015625 14.65625 0.015625 14.65625 -3 C 14.65625 -5.953125 11.078125 -5.96875 9.171875 -5.984375 Z M 9.171875 -5.984375 "/></g></g></g></svg>